<?xml version="1.0" encoding="UTF-8"?><svg xmlns="http://www.w3.org/2000/svg" xmlns:xlink="http://www.w3.org/1999/xlink" height="163.3" preserveAspectRatio="xMidYMid meet" version="1.1" viewBox="99.6 130.9 226.0 163.3" width="226.0" zoomAndPan="magnify">
 <g id="surface1">
  <g id="change1_1"><path d="m275.39 269.21c-4.21 6.28-12.72 7.95-19 3.74l-60.16-40.39c-6.28-4.22-7.95-12.72-3.74-19.01l40.39-60.15c4.22-6.28 12.73-7.96 19-3.74l60.16 40.39c6.28 4.22 7.96 12.72 3.74 19l-40.39 60.16" fill="#fff"/></g>
  <g id="change2_1"><path d="m275.39 269.21l-0.83-0.56c-2.45 3.65-6.46 5.62-10.55 5.62-2.44 0-4.89-0.7-7.06-2.15l-60.16-40.39c-3.65-2.45-5.62-6.46-5.63-10.55 0.01-2.44 0.7-4.89 2.16-7.07l40.39-60.16c2.45-3.65 6.46-5.61 10.56-5.62 2.43 0.01 4.88 0.7 7.06 2.16l60.15 40.39c3.66 2.45 5.63 6.46 5.63 10.55 0 2.43-0.7 4.89-2.16 7.06l-40.39 60.16 0.83 0.56 0.83 0.56 40.39-60.16c1.69-2.51 2.5-5.36 2.5-8.18 0-4.73-2.29-9.38-6.51-12.21l-60.16-40.39c-2.51-1.69-5.36-2.5-8.17-2.5-4.73 0-9.38 2.29-12.22 6.51l-40.39 60.16c-1.68 2.51-2.5 5.36-2.5 8.18 0 4.73 2.29 9.37 6.51 12.21l60.16 40.39c2.51 1.68 5.36 2.49 8.18 2.49 4.73 0 9.38-2.28 12.21-6.5l-0.83-0.56" fill="inherit"/></g>
  <g id="change3_1"><path d="m252.1 183.37c-2.06 3.06-6.21 3.88-9.28 1.83-3.06-2.06-3.87-6.22-1.82-9.28 2.06-3.06 6.21-3.88 9.27-1.82 3.07 2.06 3.89 6.2 1.83 9.27" fill="#bf1a2c"/></g>
  <g id="change2_2"><path d="m252.1 183.37l-0.83-0.56c-1.1 1.64-2.89 2.52-4.73 2.52-1.09 0-2.18-0.31-3.16-0.97-1.63-1.09-2.51-2.89-2.51-4.72 0-1.09 0.31-2.19 0.96-3.16 1.1-1.64 2.89-2.52 4.72-2.52 1.09 0 2.19 0.31 3.17 0.97 1.63 1.1 2.51 2.89 2.51 4.72 0 1.09-0.31 2.19-0.96 3.17v-0.01l0.83 0.56 0.83 0.56c0.88-1.31 1.3-2.81 1.3-4.28 0-2.47-1.19-4.9-3.4-6.38-1.31-0.88-2.8-1.31-4.28-1.31-2.46 0-4.9 1.2-6.38 3.4-0.88 1.32-1.3 2.81-1.3 4.28-0.01 2.47 1.19 4.9 3.4 6.38 1.31 0.89 2.8 1.31 4.27 1.31 2.48 0 4.91-1.19 6.39-3.4l-0.83-0.56" fill="inherit"/></g>
  <g id="change3_2"><path d="m227.51 219.99c-2.06 3.06-6.21 3.89-9.27 1.83s-3.88-6.21-1.83-9.28c2.06-3.06 6.21-3.88 9.28-1.82 3.06 2.06 3.88 6.21 1.82 9.27" fill="#bf1a2c"/></g>
  <g id="change2_3"><path d="m227.51 219.99l-0.83-0.56c-1.1 1.64-2.89 2.52-4.72 2.52-1.09 0-2.19-0.31-3.16-0.97-1.64-1.09-2.52-2.89-2.52-4.72 0-1.09 0.31-2.18 0.97-3.16 1.09-1.64 2.89-2.51 4.72-2.51 1.09 0 2.19 0.31 3.16 0.96 1.64 1.1 2.51 2.89 2.51 4.72 0 1.09-0.3 2.19-0.96 3.16l1.66 1.12c0.88-1.31 1.31-2.8 1.3-4.28 0.01-2.47-1.19-4.9-3.39-6.38-1.32-0.88-2.81-1.3-4.28-1.3-2.47 0-4.9 1.19-6.38 3.4-0.89 1.31-1.31 2.8-1.31 4.27 0 2.47 1.19 4.9 3.4 6.38 1.31 0.89 2.8 1.31 4.28 1.31 2.47 0 4.9-1.19 6.38-3.4l-0.83-0.56" fill="inherit"/></g>
  <g id="change3_3"><path d="m291.86 210.06c-2.06 3.06-6.21 3.89-9.27 1.83-3.07-2.06-3.89-6.21-1.83-9.28 2.06-3.06 6.21-3.88 9.28-1.82 3.06 2.06 3.87 6.21 1.82 9.27" fill="#bf1a2c"/></g>
  <g id="change2_4"><path d="m291.86 210.06l-0.83-0.56c-1.1 1.64-2.89 2.52-4.73 2.52-1.09 0-2.18-0.31-3.16-0.96-1.63-1.1-2.51-2.9-2.52-4.73 0.01-1.09 0.32-2.19 0.97-3.16 1.1-1.63 2.89-2.51 4.73-2.51 1.09 0 2.18 0.3 3.16 0.96 1.63 1.1 2.51 2.89 2.51 4.72 0 1.09-0.31 2.19-0.96 3.17l0.83 0.55 0.83 0.56c0.88-1.31 1.3-2.8 1.3-4.28 0-2.47-1.19-4.9-3.4-6.38-1.31-0.88-2.8-1.3-4.27-1.3-2.48-0.01-4.91 1.19-6.39 3.39-0.88 1.32-1.31 2.81-1.31 4.28 0 2.47 1.2 4.9 3.41 6.39 1.31 0.88 2.8 1.3 4.27 1.3 2.47 0 4.9-1.19 6.39-3.4l-0.83-0.56" fill="inherit"/></g>
  <g id="change3_4"><path d="m267.27 246.69c-2.06 3.06-6.21 3.88-9.27 1.82-3.07-2.06-3.88-6.21-1.82-9.27 2.05-3.07 6.2-3.88 9.27-1.83 3.06 2.06 3.88 6.21 1.82 9.28" fill="#bf1a2c"/></g>
  <g id="change2_5"><path d="m267.27 246.69l-0.83-0.56c-1.1 1.63-2.89 2.51-4.72 2.51-1.1 0-2.19-0.31-3.17-0.96-1.63-1.1-2.51-2.89-2.51-4.73 0-1.09 0.31-2.18 0.96-3.15l0.01-0.01c1.09-1.63 2.88-2.51 4.72-2.51 1.09 0 2.18 0.31 3.16 0.96 1.63 1.1 2.51 2.89 2.52 4.72 0 1.1-0.32 2.19-0.97 3.17l0.83 0.56 0.83 0.55c0.88-1.31 1.31-2.8 1.31-4.28 0-2.46-1.2-4.9-3.41-6.38-1.31-0.88-2.8-1.3-4.27-1.3-2.47 0-4.91 1.19-6.39 3.4-0.88 1.31-1.3 2.8-1.3 4.27 0 2.48 1.19 4.91 3.4 6.39 1.31 0.88 2.81 1.3 4.28 1.3 2.47 0 4.9-1.19 6.38-3.4l-0.83-0.55" fill="inherit"/></g>
  <g id="change1_2"><path d="m219.62 261.58c0 7.56-6.13 13.69-13.69 13.69h-72.46c-7.56 0-13.7-6.13-13.7-13.69v-72.46c0-7.57 6.14-13.7 13.7-13.7h72.46c7.56 0 13.69 6.13 13.69 13.7v72.46" fill="#fff"/></g>
  <g id="change2_6"><path d="m219.62 261.58h-1c0 3.51-1.42 6.67-3.71 8.97-2.3 2.31-5.47 3.72-8.98 3.72h-72.46c-3.51 0-6.68-1.41-8.98-3.72-2.29-2.3-3.72-5.46-3.72-8.97v-72.46c0-3.51 1.43-6.68 3.72-8.98 2.3-2.3 5.47-3.71 8.98-3.72h72.46c3.51 0.01 6.68 1.42 8.98 3.72 2.29 2.3 3.71 5.47 3.71 8.98v72.46h2v-72.46c0-8.12-6.58-14.69-14.69-14.7h-72.46c-8.12 0.01-14.69 6.58-14.7 14.7v72.46c0.01 8.12 6.58 14.69 14.7 14.69h72.46c8.11 0 14.69-6.57 14.69-14.69h-1" fill="inherit"/></g>
  <g id="change3_5"><path d="m152.44 193.61c0 3.69-2.99 6.68-6.69 6.68-3.69 0-6.68-2.99-6.68-6.68s2.99-6.68 6.68-6.68c3.7 0 6.69 2.99 6.69 6.68" fill="#bf1a2c"/></g>
  <g id="change2_7"><path d="m152.44 193.61h-1c0 1.57-0.64 2.98-1.67 4.02-1.03 1.03-2.44 1.66-4.02 1.66-1.57 0-2.98-0.63-4.01-1.66-1.03-1.04-1.67-2.45-1.67-4.02s0.64-2.99 1.67-4.02 2.44-1.66 4.01-1.66c1.58 0 2.99 0.63 4.02 1.66s1.67 2.45 1.67 4.02h2c0-4.25-3.44-7.68-7.69-7.68-4.24 0-7.68 3.43-7.68 7.68 0 4.24 3.44 7.68 7.68 7.68 4.25 0 7.69-3.44 7.69-7.68h-1" fill="inherit"/></g>
  <g id="change3_6"><path d="m152.44 225.35c0 3.69-2.99 6.68-6.69 6.68-3.69 0-6.68-2.99-6.68-6.68s2.99-6.68 6.68-6.68c3.7 0 6.69 2.99 6.69 6.68" fill="#bf1a2c"/></g>
  <g id="change2_8"><path d="m152.44 225.35h-1c0 1.57-0.64 2.99-1.67 4.02-1.03 1.02-2.44 1.66-4.02 1.66-1.57 0-2.98-0.64-4.01-1.66-1.03-1.03-1.67-2.45-1.67-4.02s0.64-2.99 1.67-4.02 2.44-1.66 4.01-1.66c1.58 0 2.99 0.63 4.02 1.66s1.67 2.45 1.67 4.02h2c0-4.24-3.44-7.68-7.69-7.68-4.24 0-7.68 3.44-7.68 7.68s3.44 7.68 7.68 7.68c4.25 0 7.69-3.44 7.69-7.68h-1" fill="inherit"/></g>
  <g id="change3_7"><path d="m152.44 257.09c0 3.69-2.99 6.68-6.69 6.68-3.69 0-6.68-2.99-6.68-6.68s2.99-6.68 6.68-6.68c3.7 0 6.69 2.99 6.69 6.68" fill="#bf1a2c"/></g>
  <g id="change2_9"><path d="m152.44 257.09h-1c0 1.57-0.64 2.98-1.67 4.02-1.03 1.03-2.44 1.66-4.02 1.66-1.57 0-2.98-0.63-4.01-1.66-1.03-1.04-1.67-2.45-1.67-4.02s0.64-2.99 1.67-4.02 2.44-1.66 4.01-1.66c1.58 0 2.99 0.63 4.02 1.66s1.67 2.45 1.67 4.02h2c0-4.24-3.44-7.68-7.69-7.68-4.24 0-7.68 3.44-7.68 7.68s3.44 7.68 7.68 7.68c4.25 0 7.69-3.44 7.69-7.68h-1" fill="inherit"/></g>
  <g id="change3_8"><path d="m200.32 193.61c0 3.69-2.99 6.68-6.68 6.68s-6.68-2.99-6.68-6.68 2.99-6.68 6.68-6.68 6.68 2.99 6.68 6.68" fill="#bf1a2c"/></g>
  <g id="change2_10"><path d="m200.32 193.61h-1c0 1.57-0.63 2.98-1.66 4.02-1.03 1.03-2.45 1.66-4.02 1.66s-2.98-0.63-4.02-1.66c-1.02-1.04-1.66-2.45-1.66-4.02s0.64-2.99 1.66-4.02c1.04-1.03 2.45-1.66 4.02-1.66s2.99 0.63 4.02 1.66 1.66 2.45 1.66 4.02h2c0-4.25-3.43-7.68-7.68-7.68-4.24 0-7.68 3.43-7.68 7.68 0 4.24 3.44 7.68 7.68 7.68 4.25 0 7.68-3.44 7.68-7.68h-1" fill="inherit"/></g>
  <g id="change3_9"><path d="m200.32 225.35c0 3.69-2.99 6.68-6.68 6.68s-6.68-2.99-6.68-6.68 2.99-6.68 6.68-6.68 6.68 2.99 6.68 6.68" fill="#bf1a2c"/></g>
  <g id="change2_11"><path d="m200.32 225.35h-1c0 1.57-0.63 2.99-1.66 4.02-1.03 1.02-2.45 1.66-4.02 1.66s-2.98-0.64-4.02-1.66c-1.02-1.03-1.66-2.45-1.66-4.02s0.64-2.99 1.66-4.02c1.04-1.03 2.45-1.66 4.02-1.66s2.99 0.63 4.02 1.66 1.66 2.45 1.66 4.02h2c0-4.24-3.43-7.68-7.68-7.68-4.24 0-7.68 3.44-7.68 7.68s3.44 7.68 7.68 7.68c4.25 0 7.68-3.44 7.68-7.68h-1" fill="inherit"/></g>
  <g id="change3_10"><path d="m200.32 257.09c0 3.69-2.99 6.68-6.68 6.68s-6.68-2.99-6.68-6.68 2.99-6.68 6.68-6.68 6.68 2.99 6.68 6.68" fill="#bf1a2c"/></g>
  <g id="change2_12"><path d="m200.32 257.09h-1c0 1.57-0.63 2.98-1.66 4.02-1.03 1.03-2.45 1.66-4.02 1.66s-2.98-0.63-4.02-1.66c-1.02-1.04-1.66-2.45-1.66-4.02s0.64-2.99 1.66-4.02c1.04-1.03 2.45-1.66 4.02-1.66s2.99 0.63 4.02 1.66 1.66 2.45 1.66 4.02h2c0-4.24-3.43-7.68-7.68-7.68-4.24 0-7.68 3.44-7.68 7.68s3.44 7.68 7.68 7.68c4.25 0 7.68-3.44 7.68-7.68h-1" fill="inherit"/></g>
  <g id="change4_1"><path d="m324.6 155.73c-19.71 2.26-21.54 4.09-23.8 23.8-2.26-19.71-4.09-21.54-23.79-23.8 19.7-2.26 21.53-4.09 23.79-23.8 2.26 19.71 4.09 21.54 23.8 23.8" fill="#f58611"/></g>
  <g id="change2_13"><path d="m324.6 155.73l-0.11-1c-4.94 0.57-8.79 1.11-11.86 1.93-2.31 0.62-4.19 1.4-5.74 2.51-1.16 0.83-2.13 1.83-2.92 3.04-1.18 1.81-1.97 4.04-2.6 6.84-0.62 2.81-1.08 6.2-1.56 10.36l0.99 0.12 1-0.12c-0.57-4.94-1.11-8.78-1.93-11.86-0.62-2.3-1.4-4.18-2.5-5.73-0.83-1.17-1.84-2.13-3.05-2.92-1.81-1.19-4.04-1.97-6.84-2.6-2.8-0.62-6.19-1.09-10.36-1.57l-0.11 1 0.11 0.99c4.94-0.56 8.78-1.1 11.86-1.92 2.31-0.62 4.19-1.41 5.74-2.51 1.16-0.83 2.13-1.83 2.92-3.04 1.18-1.81 1.97-4.04 2.59-6.84 0.63-2.81 1.09-6.2 1.57-10.36l-1-0.12-0.99 0.12c0.57 4.94 1.11 8.78 1.93 11.86 0.62 2.3 1.4 4.18 2.5 5.73 0.83 1.17 1.84 2.13 3.05 2.92 1.8 1.19 4.04 1.98 6.84 2.6 2.8 0.63 6.19 1.09 10.36 1.56l0.11-0.99-0.11-1 0.11 1 0.11-1c-4.91-0.55-8.68-1.09-11.57-1.87-2.16-0.57-3.8-1.28-5.09-2.2-0.97-0.69-1.74-1.49-2.4-2.5-0.99-1.52-1.73-3.52-2.33-6.19-0.59-2.67-1.05-6.01-1.52-10.15-0.06-0.5-0.49-0.89-1-0.89-0.5 0-0.93 0.39-0.99 0.89-0.56 4.91-1.1 8.69-1.87 11.57-0.58 2.16-1.29 3.81-2.21 5.09-0.68 0.97-1.49 1.75-2.5 2.41-1.52 0.99-3.51 1.72-6.18 2.32-2.68 0.59-6.01 1.05-10.16 1.52-0.5 0.06-0.88 0.49-0.88 1s0.38 0.93 0.88 0.99c4.91 0.57 8.69 1.1 11.57 1.88 2.16 0.58 3.81 1.28 5.1 2.2 0.96 0.69 1.74 1.49 2.4 2.5 0.99 1.52 1.73 3.52 2.32 6.19 0.6 2.67 1.06 6.01 1.53 10.15 0.06 0.5 0.49 0.89 0.99 0.89 0.51 0 0.94-0.39 1-0.89 0.56-4.91 1.1-8.69 1.87-11.57 0.58-2.16 1.29-3.81 2.2-5.09 0.69-0.97 1.5-1.75 2.51-2.41 1.51-0.99 3.51-1.72 6.18-2.32 2.67-0.59 6.01-1.05 10.15-1.53 0.51-0.06 0.89-0.48 0.89-0.99s-0.38-0.94-0.89-1l-0.11 1" fill="inherit"/></g>
  <g id="change4_2"><path d="m131.68 277.73c-12.87 1.47-14.07 2.67-15.54 15.54-1.48-12.87-2.68-14.07-15.54-15.54 12.86-1.48 14.06-2.67 15.54-15.54 1.47 12.87 2.67 14.06 15.54 15.54" fill="#f58611"/></g>
  <g id="change2_14"><path d="m131.68 277.73l-0.12-1c-3.23 0.38-5.75 0.73-7.79 1.27-1.53 0.41-2.8 0.94-3.86 1.69-0.8 0.56-1.46 1.26-2 2.08-0.8 1.23-1.33 2.73-1.74 4.59-0.41 1.85-0.71 4.07-1.03 6.79l1 0.12 0.99-0.12c-0.37-3.23-0.72-5.75-1.27-7.79-0.41-1.53-0.93-2.8-1.68-3.86-0.57-0.79-1.26-1.46-2.08-1.99-1.24-0.81-2.74-1.33-4.59-1.75-1.85-0.41-4.07-0.71-6.8-1.03l-0.11 1 0.11 0.99c3.24-0.37 5.75-0.72 7.8-1.27 1.53-0.41 2.79-0.93 3.85-1.68 0.8-0.57 1.46-1.26 2-2.08 0.8-1.24 1.33-2.73 1.75-4.58 0.41-1.86 0.71-4.08 1.02-6.8l-0.99-0.12-1 0.12c0.38 3.23 0.73 5.75 1.27 7.79 0.41 1.53 0.93 2.8 1.69 3.86 0.56 0.79 1.26 1.45 2.08 1.99 1.23 0.81 2.73 1.33 4.58 1.75 1.85 0.41 4.08 0.71 6.8 1.02l0.12-0.99-0.12-1 0.12 1 0.11-0.99c-3.2-0.37-5.66-0.72-7.5-1.22-1.39-0.37-2.43-0.82-3.22-1.38-0.6-0.43-1.07-0.92-1.48-1.55-0.61-0.93-1.09-2.2-1.47-3.92s-0.68-3.89-0.99-6.59c-0.06-0.51-0.49-0.89-0.99-0.89-0.51 0-0.94 0.38-1 0.89-0.36 3.2-0.71 5.65-1.21 7.5-0.37 1.39-0.82 2.42-1.38 3.22-0.43 0.59-0.92 1.07-1.55 1.48-0.93 0.61-2.2 1.08-3.92 1.47-1.72 0.38-3.89 0.68-6.6 0.99-0.5 0.05-0.882 0.48-0.882 0.99s0.382 0.93 0.882 0.99c3.21 0.37 5.66 0.72 7.51 1.22 1.39 0.37 2.42 0.81 3.21 1.38 0.6 0.43 1.07 0.92 1.48 1.54 0.62 0.94 1.09 2.21 1.47 3.93 0.39 1.72 0.68 3.89 0.99 6.59 0.06 0.51 0.49 0.89 1 0.89 0.5 0 0.93-0.38 0.99-0.89 0.37-3.2 0.72-5.65 1.21-7.5 0.37-1.39 0.82-2.43 1.39-3.22 0.42-0.59 0.91-1.07 1.54-1.48 0.94-0.61 2.2-1.08 3.93-1.47 1.72-0.38 3.89-0.68 6.59-0.99 0.5-0.06 0.89-0.48 0.89-0.99s-0.39-0.94-0.89-0.99l-0.11 0.99" fill="inherit"/></g>
 </g>
</svg>